<svg width="149" height="97" viewBox="0 0 149 97" fill="none" xmlns="http://www.w3.org/2000/svg" stroke-width="3">
<path d="M148.5 48.5C148.5 61.6681 140.301 73.656 126.907 82.3756C113.517 91.0923 94.99 96.5 74.5 96.5C54.01 96.5 35.4828 91.0923 22.0933 82.3756C8.69917 73.656 0.5 61.6681 0.5 48.5C0.5 35.3319 8.69917 23.344 22.0933 14.6243C35.4828 5.9077 54.01 0.5 74.5 0.5C94.99 0.5 113.517 5.9077 126.907 14.6243C140.301 23.344 148.5 35.3319 148.5 48.5Z" stroke="black" stroke-width="3" />
<ellipse cx="76.5" cy="41" rx="42.5" ry="41" fill="black" stroke-width="3"  />
<ellipse cx="90.5" cy="27" rx="14.5" ry="14" fill="white" stroke-width="3" />
</svg>
